HIERARCHY
ROOT Hips
{
    OFFSET 0.000000 0.000000 0.000000
    CHANNELS 6 Xposition Yposition Zposition Zrotation Xrotation Yrotation
        JOINT Chest
        {
            OFFSET -0.000000 26.747992 -0.000000
            CHANNELS 3 Zrotation Xrotation Yrotation
            JOINT Neck
            {
                OFFSET -0.000000 19.168715 0.000000
                CHANNELS 3 Zrotation Xrotation Yrotation
                JOINT Head
                {
                    OFFSET -0.000000 10.083335 0.000000
                    CHANNELS 3 Zrotation Xrotation Yrotation
                    End Site
                    {
                        OFFSET -0.000000 15.583343 0.000000
                    }
                }
            }
            JOINT LeftCollar
            {
                OFFSET -0.000000 19.168715 0.000000
                CHANNELS 3 Zrotation Xrotation Yrotation
                JOINT LeftShoulder
                {
                    OFFSET 19.500000 -0.000000 0.000000
                    CHANNELS 3 Zrotation Xrotation Yrotation
                    JOINT LeftElbow
                    {
                        OFFSET 19.022890 0.000000 0.000000
                        CHANNELS 3 Zrotation Xrotation Yrotation
                        JOINT LeftWrist
                        {
                            OFFSET 24.768559 0.000000 0.000000
                            CHANNELS 3 Zrotation Xrotation Yrotation
                            End Site
                            {
                                OFFSET 0.000000 -13.750003 0.000000
                            }
                        }
                    }
                }
            }
            JOINT RightCollar
            {
                OFFSET -0.000000 19.168715 0.000000
                CHANNELS 3 Zrotation Xrotation Yrotation
                JOINT RightShoulder
                {
                    OFFSET -19.500000 0.000000 0.000000
                    CHANNELS 3 Zrotation Xrotation Yrotation
                    JOINT RightElbow
                    {
                        OFFSET -19.022890 0.000000 0.000000
                        CHANNELS 3 Zrotation Xrotation Yrotation
                        JOINT RightWrist
                        {
                            OFFSET -24.768559 0.000000 0.000000
                            CHANNELS 3 Zrotation Xrotation Yrotation
                            End Site
                            {
                                OFFSET -0.000000 -13.750003 0.000000
                            }
                        }
                    }
                }
            }
        }
    JOINT LeftHip
    {
        OFFSET 11.000002 0.000000 0.000000
        CHANNELS 3 Zrotation Xrotation Yrotation
        JOINT LeftKnee
        {
            OFFSET -0.000000 -39.837296 0.000000
            CHANNELS 3 Zrotation Xrotation Yrotation
            JOINT LeftAnkle
            {
                OFFSET -0.000000 -38.248398 0.000000
                CHANNELS 3 Zrotation Xrotation Yrotation
                End Site
                {
                    OFFSET -0.000000 -4.583334 15.583343
                }
            }
        }
    }
    JOINT RightHip
    {
        OFFSET -11.000002 0.000000 0.000000
        CHANNELS 3 Zrotation Xrotation Yrotation
        JOINT RightKnee
        {
            OFFSET -0.000000 -39.837296 0.000000
            CHANNELS 3 Zrotation Xrotation Yrotation
            JOINT RightAnkle
            {
                OFFSET -0.000000 -38.248398 0.000000
                CHANNELS 3 Zrotation Xrotation Yrotation
                End Site
                {
                    OFFSET -0.000000 -4.583334 15.583343
                }
            }
        }
    }
}
MOTION
Frames:    13
Frame Time:    0.010000
22.463434    85.908798    -55.571484    -0.351279    0.516513    -70.449966    -2.047733    4.744654    3.372344    -2.716814    5.527531    15.621320    1.919388    -32.504330    16.547800    -20.918686    -4.129610    22.204504    -0.710486    51.406479    -55.468712    5.559524    -4.734416    -81.057777    136.708313    45.572136    61.763531    21.083031    -0.067417    -0.362289    30.912788    28.887928    14.931264    14.968303    13.880082    85.811745    -59.338844    4.233856    -12.188697    5.634331    -3.824278    6.404466    0.057695    7.829434    12.321892    -6.175838    -2.273865    2.909157    -7.072355    0.568837    -1.721142    -5.150688    10.852513    0.308389    6.900951    -10.212957    2.181870    
22.546856    85.886749    -55.637314    -0.282427    0.651594    -70.576561    -1.939969    4.615065    3.257608    -2.023002    6.129028    14.834149    2.628752    -32.594719    15.467072    -20.632605    -3.907202    20.649799    -0.395366    52.547874    -55.628353    5.938858    -5.307872    -80.509224    135.664017    43.324249    61.996960    21.216228    -0.208449    -1.823898    30.770844    29.385010    14.943968    14.444614    13.058040    86.066666    -59.211712    3.693846    -11.890408    5.792344    -4.119195    6.330710    0.028041    8.078682    12.546979    -6.140879    -2.295475    2.888870    -6.954338    0.153781    -1.552235    -5.130542    11.287782    0.342815    6.953157    -10.374806    2.082774    
22.565428    85.859917    -55.711418    -0.296256    0.634129    -70.783302    -1.867925    4.725411    3.276948    -1.786794    6.203416    15.049640    2.162262    -32.853493    15.599639    -20.780283    -3.875395    20.507696    -0.422964    51.898190    -55.435307    5.636880    -4.588464    -80.331444    136.031525    41.817970    62.339481    21.302683    -0.285213    -1.765434    30.733593    29.169025    14.837378    14.420164    13.405748    85.780861    -60.270603    2.690092    -11.935784    5.892170    -4.240499    6.708190    -0.003770    8.355294    12.417430    -6.207716    -2.356639    2.873790    -6.891467    -0.043049    -1.374881    -5.195249    11.508921    0.001205    7.409999    -10.426142    2.372613    
22.605909    85.851250    -55.773079    -0.272912    0.666276    -70.909927    -1.792686    4.741859    3.240090    -1.745095    6.241361    15.130525    2.104278    -33.062767    15.663306    -20.797338    -3.834532    20.410536    -0.418240    51.800365    -55.412582    5.522933    -4.546203    -79.961479    135.691925    39.984653    62.195576    21.332533    -0.320413    -1.764783    30.705702    29.256796    14.750690    14.454337    13.390819    85.642776    -60.717358    2.143281    -11.765865    5.979971    -4.402189    6.834066    -0.021659    8.563096    12.445752    -6.215339    -2.386209    2.858258    -6.829239    -0.279961    -1.272047    -5.224436    11.766146    -0.095862    7.516635    -10.486669    2.483686    
22.652922    85.843330    -55.846870    -0.245892    0.695989    -71.058243    -1.709614    4.761365    3.195800    -1.720474    6.275730    15.236083    2.044577    -33.296925    15.757413    -20.813822    -3.810795    20.317186    -0.460974    51.682270    -55.328896    5.413765    -4.429146    -79.506233    135.311249    37.811806    62.053570    21.368870    -0.341314    -1.731709    30.680490    29.317858    14.663712    14.422550    13.353865    85.489403    -61.020054    1.597982    -11.494891    6.073514    -4.582372    6.956489    -0.041054    8.794451    12.506951    -6.208251    -2.410382    2.833080    -6.759490    -0.560449    -1.171186    -5.268533    12.079197    -0.177458    7.609884    -10.558134    2.616564    
22.704269    85.835556    -55.931484    -0.219508    0.718382    -71.229401    -1.621414    4.786163    3.145491    -1.710716    6.314305    15.355429    1.998176    -33.548607    15.868287    -20.830730    -3.795937    20.211166    -0.555241    51.538750    -55.186916    5.272314    -4.247847    -78.950638    134.941879    35.215477    61.846355    21.413675    -0.322857    -1.680569    30.661732    29.319508    14.572105    14.471162    13.337618    85.270927    -61.443073    0.922346    -11.224104    6.168416    -4.767844    7.069338    -0.061965    9.039101    12.605890    -6.180719    -2.425817    2.797969    -6.683984    -0.879566    -1.077442    -5.331355    12.451918    -0.227133    7.686596    -10.644693    2.761914    
22.756540    85.827316    -56.025227    -0.201436    0.727599    -71.425774    -1.531034    4.821694    3.091861    -1.721304    6.361732    15.485147    1.969396    -33.816082    15.993287    -20.860641    -3.755273    20.091352    -0.703729    51.335396    -54.972828    5.059060    -3.967380    -78.306122    134.630951    32.163364    61.551182    21.465799    -0.324355    -1.611546    30.654068    29.321789    14.473795    14.418329    13.254570    85.056160    -61.656361    0.276000    -10.849729    6.260657    -4.940008    7.176816    -0.083853    9.286134    12.735241    -6.132371    -2.432238    2.756616    -6.604472    -1.227158    -0.991842    -5.415928    12.885805    -0.232834    7.743842    -10.750090    2.908507    
22.806499    85.818077    -56.126369    -0.199172    0.719204    -71.647583    -1.440607    4.872251    3.035114    -1.758887    6.422752    15.623461    1.966175    -34.097538    16.133364    -20.890118    -3.723884    19.962610    -0.892358    51.099403    -54.738407    4.805897    -3.674256    -77.501846    134.305069    28.596304    61.141117    21.527765    -0.306259    -1.520592    30.664003    29.274263    14.348351    14.449787    13.212115    84.777817    -62.019821    -0.485815    -10.506766    6.347118    -5.081691    7.282692    -0.105974    9.525249    12.884193    -6.068006    -2.431220    2.715662    -6.522042    -1.592065    -0.914748    -5.524221    13.379900    -0.188727    7.779046    -10.876733    3.047731    
22.852108    85.807297    -56.233406    -0.217791    0.691770    -71.891350    -1.351182    4.938560    2.971446    -1.823012    6.502963    15.766647    1.988013    -34.388763    16.283979    -20.917288    -3.703943    19.822723    -1.111342    50.841000    -54.478817    4.503217    -3.336176    -76.548813    133.959671    24.579527    60.654591    21.601328    -0.288353    -1.410200    30.688784    29.194904    14.204186    14.484941    13.153501    84.479469    -62.290222    -1.189621    -10.068644    6.425722    -5.181539    7.382542    -0.127606    9.747467    13.046813    -5.995931    -2.424436    2.682926    -6.436813    -1.965325    -0.848452    -5.656396    13.931474    -0.093569    7.789684    -11.025844    3.173918    
22.892710    85.794479    -56.345360    -0.258412    0.646501    -72.151237    -1.261840    5.018088    2.894532    -1.916381    6.600983    15.917427    2.040045    -34.679539    16.450140    -20.937355    -3.711133    19.681694    -1.342868    50.572567    -54.220306    4.162044    -2.981617    -75.429558    133.541290    20.180672    60.102760    21.687565    -0.256098    -1.272449    30.730501    29.065233    14.033270    14.523065    13.127028    84.159050    -62.554005    -1.860025    -9.608647    6.495116    -5.235421    7.464243    -0.148321    9.945451    13.224039    -5.926149    -2.413308    2.665471    -6.348729    -2.342057    -0.796967    -5.811180    14.536220    0.049705    7.775073    -11.197934    3.287563    
22.928873    85.779037    -56.462223    -0.317984    0.585266    -72.421761    -1.172824    5.104326    2.798048    -2.029585    6.721028    16.071115    2.111683    -34.961952    16.623152    -20.968391    -3.692467    19.527174    -1.573085    50.251362    -53.942867    3.742716    -2.543228    -74.196831    133.070206    15.549490    59.507359    21.787558    -0.238397    -1.117422    30.788671    28.912275    13.837510    14.564059    13.083737    83.838036    -62.815907    -2.469177    -9.127529    6.553468    -5.245121    7.513293    -0.167737    10.112933    13.422117    -5.868671    -2.397818    2.668293    -6.259098    -2.722426    -0.765971    -5.986577    15.189655    0.237999    7.736599    -11.393100    3.393951    
22.962072    85.760094    -56.585209    -0.389915    0.509685    -72.698517    -1.082572    5.190773    2.678243    -2.160246    6.853327    16.234709    2.202396    -35.220097    16.811167    -21.009865    -3.655693    19.369520    -1.771305    49.871685    -53.709515    3.283020    -2.109037    -72.807663    132.454910    10.770690    58.837002    21.898602    -0.200819    -0.938420    30.861931    28.707981    13.617317    14.629586    13.091686    83.498764    -63.105072    -3.010563    -8.642745    6.598743    -5.217021    7.516348    -0.185820    10.244633    13.650264    -5.832204    -2.376316    2.693255    -6.171010    -3.111068    -0.763283    -6.180356    15.887812    0.471790    7.677988    -11.612216    3.499890    
22.994011    85.736610    -56.716038    -0.466032    0.420455    -72.977478    -0.990098    5.269780    2.534604    -2.292478    6.996251    16.405081    2.292267    -35.442657    17.004816    -21.056061    -3.620485    19.194040    -1.915390    49.458141    -53.547131    2.814520    -1.699012    -71.262589    131.670197    5.983113    58.084976    22.016920    -0.168296    -0.751427    30.942329    28.488623    13.392441    14.685064    13.072047    83.173492    -63.359619    -3.449247    -8.135877    6.628660    -5.159390    7.462695    -0.202980    10.335997    13.918432    -5.822658    -2.345541    2.738752    -6.089099    -3.512948    -0.797025    -6.390317    16.624197    0.753468    7.603850    -11.855404    3.611609    
